{
	"asset":{
		"generator":"Khronos glTF Blender I/O v5.0.21",
		"version":"2.0"
	},
	"scene":0,
	"scenes":[
		{
			"name":"Scene",
			"nodes":[
				0
			]
		}
	],
	"nodes":[
		{
			"mesh":0,
			"name":"TestMesh"
		}
	],
	"meshes":[
		{
			"name":"TestMeshes",
			"primitives":[
				{
					"attributes":{
						"POSITION":0,
						"NORMAL":1,
						"TEXCOORD_0":2
					},
					"indices":3
				}
			]
		}
	],
	"accessors":[
		{
			"bufferView":0,
			"componentType":5126,
			"count":6278,
			"max":[
				3.9871325492858887,
				3.753080368041992,
				3.06734561920166
			],
			"min":[
				-2.884615421295166,
				-3.9214091300964355,
				-2.302959442138672
			],
			"type":"VEC3"
		},
		{
			"bufferView":1,
			"componentType":5126,
			"count":6278,
			"type":"VEC3"
		},
		{
			"bufferView":2,
			"componentType":5126,
			"count":6278,
			"type":"VEC2"
		},
		{
			"bufferView":3,
			"componentType":5123,
			"count":9276,
			"type":"SCALAR"
		}
	],
	"bufferViews":[
		{
			"buffer":0,
			"byteLength":75336,
			"byteOffset":0,
			"target":34962
		},
		{
			"buffer":0,
			"byteLength":75336,
			"byteOffset":75336,
			"target":34962
		},
		{
			"buffer":0,
			"byteLength":50224,
			"byteOffset":150672,
			"target":34962
		},
		{
			"buffer":0,
			"byteLength":18552,
			"byteOffset":200896,
			"target":34963
		}
	],
	"buffers":[
		{
			"byteLength":219448,
			"uri":"TestMesh.bin"
		}
	]
}
